<svg width="41" height="46" viewBox="0 0 41 46" fill="none" xmlns="http://www.w3.org/2000/svg">
<path d="M0 43.9437C0 44.6762 0.593815 45.27 1.32627 45.27H6.63135C7.3638 45.27 7.95762 44.6762 7.95762 43.9437V37.7545C7.95762 37.022 7.3638 36.4282 6.63135 36.4282H1.32627C0.593815 36.4282 0 37.022 0 37.7545V43.9437ZM2.65254 39.0808H5.30508V42.6175H2.65254V39.0808Z" fill="#263959"/>
<path d="M18.568 43.9437V31.1974C18.568 30.4649 17.9742 29.8711 17.2417 29.8711H11.9366C11.2042 29.8711 10.6104 30.4649 10.6104 31.1974V43.9437C10.6104 44.6761 11.2042 45.2699 11.9366 45.2699H17.2417C17.9742 45.2699 18.568 44.6761 18.568 43.9437ZM15.9154 42.6174H13.2629V32.5236H15.9154V42.6174Z" fill="#263959"/>
<path d="M29.1783 43.9436V21.3658C29.1783 20.6334 28.5845 20.0396 27.852 20.0396H22.547C21.8145 20.0396 21.2207 20.6334 21.2207 21.3658V43.9436C21.2207 44.6761 21.8145 45.2699 22.547 45.2699H27.852C28.5845 45.2699 29.1783 44.6761 29.1783 43.9436ZM26.5258 42.6173H23.8732V22.6921H26.5258V42.6173Z" fill="#263959"/>
<path d="M39.7877 43.9436V11.586C39.7877 10.8536 39.1939 10.2598 38.4614 10.2598H33.1563C32.4239 10.2598 31.8301 10.8536 31.8301 11.586V43.9436C31.8301 44.6761 32.4239 45.2699 33.1563 45.2699H38.4614C39.1939 45.2699 39.7877 44.6761 39.7877 43.9436ZM37.1351 42.6174H34.4826V12.9123H37.1351V42.6174Z" fill="#263959"/>
<path d="M39.5757 0.229393C38.9698 -0.18228 38.145 -0.0248078 37.7334 0.581118L34.7616 4.95487H30.2303C29.7369 4.95487 29.2842 5.22888 29.0554 5.66602L24.3079 14.7347H19.894C19.4098 14.7347 18.9641 14.9985 18.7312 15.423L13.7153 24.5661H9.28385C8.84715 24.5661 8.43849 24.781 8.1911 25.1408L4.07702 31.1231H1.32626C0.593813 31.1231 0 31.7169 0 32.4494C0 33.1818 0.593813 33.7757 1.32626 33.7757H4.77455C5.21116 33.7757 5.61991 33.5607 5.8673 33.2009L9.98138 27.2186H14.5005C14.9847 27.2186 15.4304 26.9548 15.6633 26.5303L20.6791 17.3872H25.1106C25.6041 17.3872 26.0568 17.1132 26.2856 16.676L31.0331 7.6074H35.4639C35.9032 7.6074 36.314 7.38989 36.5609 7.0265L39.9274 2.07184C40.339 1.46591 40.1816 0.641065 39.5757 0.229393Z" fill="#263959"/>
</svg>
