<svg width="46" height="46" viewBox="0 0 46 46" fill="none" xmlns="http://www.w3.org/2000/svg">
<path d="M45.27 43.5016C45.27 44.4784 44.4784 45.27 43.5016 45.27H22.635C21.6582 45.27 20.8666 44.4784 20.8666 43.5016C20.8666 42.5249 21.6582 41.7333 22.635 41.7333H43.5016C44.4784 41.7333 45.27 42.5249 45.27 43.5016ZM43.5016 34.7776H29.5906C28.6139 34.7776 27.8223 35.5696 27.8223 36.546C27.8223 37.5227 28.6139 38.3143 29.5906 38.3143H43.5016C44.4784 38.3143 45.27 37.5227 45.27 36.546C45.27 35.5696 44.4784 34.7776 43.5016 34.7776ZM43.5016 27.8223H36.546C35.5692 27.8223 34.7776 28.6139 34.7776 29.5906C34.7776 30.5674 35.5692 31.359 36.546 31.359H43.5016C44.4784 31.359 45.27 30.5674 45.27 29.5906C45.27 28.6139 44.4784 27.8223 43.5016 27.8223ZM44.7519 13.452L13.452 44.7519C13.1204 45.0838 12.6707 45.27 12.2017 45.27H1.76836C0.791617 45.27 0 44.4784 0 43.5016V33.0683C0 32.5993 0.186161 32.1496 0.518074 31.818L31.818 0.518074C32.5084 -0.172691 33.6282 -0.172691 34.3186 0.518074L44.7519 10.9514C45.4427 11.6418 45.4427 12.7615 44.7519 13.452ZM41.0007 12.2017L33.0683 4.26927L3.53672 33.8009V41.7333H11.4691L41.0007 12.2017Z" fill="#334463"/>
</svg>
