<svg width="46" height="46" viewBox="0 0 46 46" fill="none" xmlns="http://www.w3.org/2000/svg">
<path d="M42.8737 36.805V13.4848H36.4583V0H8.81175V13.4848H2.39627V36.805H0V41.5585C0 43.6049 1.66509 45.27 3.71148 45.27H41.5585C43.6049 45.27 45.27 43.6049 45.27 41.5585V36.805H42.8737ZM5.0488 16.1373H8.81175V31.8305H11.4643V2.65254H33.8057V31.8305H36.4583V16.1373H40.2212V36.805H24.9339V37.7113H20.3361V36.805H5.0488V16.1373ZM42.6175 41.5585C42.6175 42.1426 42.1426 42.6175 41.5585 42.6175H3.71148C3.12744 42.6175 2.65254 42.1426 2.65254 41.5585V39.4576H17.6836V40.3638H27.5864V39.4576H42.6175V41.5585Z" fill="#263959"/>
<path d="M15.915 6.71973H29.3546V9.37227H15.915V6.71973Z" fill="#263959"/>
<path d="M15.915 12.2017H29.3546V14.8542H15.915V12.2017Z" fill="#263959"/>
<path d="M15.915 17.6836H29.3546V20.3361H15.915V17.6836Z" fill="#263959"/>
<path d="M15.915 23.1655H29.3546V25.8181H15.915V23.1655Z" fill="#263959"/>
</svg>
