<svg width="46" height="46" viewBox="0 0 46 46" fill="none" xmlns="http://www.w3.org/2000/svg">
<path d="M45.27 28.4249V16.8451H42.0672C41.6694 15.5073 41.1347 14.2165 40.4693 12.9889L42.7344 10.7238L34.5463 2.53556L32.2812 4.80065C31.0535 4.1354 29.7628 3.60047 28.425 3.20276V0H16.8451V3.20276C15.5073 3.60047 14.2165 4.13531 12.9889 4.80065L10.7238 2.53556L2.53556 10.7238L4.80065 12.9889C4.1354 14.2165 3.60047 15.5073 3.20276 16.8451H0V28.425H3.20276C3.60056 29.7628 4.1354 31.0535 4.80065 32.2812L2.53556 34.5463L10.7238 42.7345L12.9889 40.4694C14.2165 41.1347 15.5072 41.6696 16.8451 42.0673V45.27H28.425V42.0672C29.7628 41.6694 31.0536 41.1346 32.2812 40.4693L34.5463 42.7344L42.7344 34.5462L40.4694 32.2811C41.1347 31.0535 41.6695 29.7628 42.0673 28.4249H45.27ZM40.0073 25.7723L39.7622 26.7872C39.3337 28.5611 38.6336 30.2507 37.6814 31.8088L37.137 32.6998L38.9833 34.5462L34.5464 38.9831L32.7001 37.1368L31.809 37.6813C30.2507 38.6335 28.5612 39.3336 26.7874 39.7621L25.7725 40.0072V42.6175H19.4978V40.0073L18.4829 39.7622C16.709 39.3337 15.0195 38.6336 13.4613 37.6814L12.5703 37.1369L10.7239 38.9832L6.28696 34.5463L8.1333 32.6999L7.58883 31.8089C6.63656 30.2507 5.93647 28.5612 5.508 26.7873L5.2629 25.7724H2.65254V19.4977H5.26281L5.50791 18.4827C5.93638 16.7089 6.63648 15.0194 7.58874 13.4611L8.13321 12.57L6.28687 10.7237L10.7238 6.28669L12.5702 8.13304L13.4612 7.58856C15.0194 6.6363 16.7089 5.93621 18.4827 5.50782L19.4977 5.26273V2.65254H25.7724V5.26281L26.7874 5.50791C28.5612 5.93629 30.2507 6.63639 31.809 7.58865L32.7 8.13313L34.5464 6.28678L38.9833 10.7238L37.137 12.5701L37.6814 13.4612C38.6337 15.0194 39.3337 16.7089 39.7622 18.4828L40.0073 19.4978H42.6175V25.7725H40.0073V25.7723Z" fill="#263959"/>
<path d="M22.6353 7.16211C14.1034 7.16211 7.16211 14.1034 7.16211 22.6353C7.16211 31.1671 14.1034 38.1084 22.6353 38.1084C31.1671 38.1084 38.1084 31.1671 38.1084 22.6353C38.1084 14.1034 31.1671 7.16211 22.6353 7.16211ZM22.6353 35.4559C15.566 35.4559 9.81465 29.7045 9.81465 22.6353C9.81465 15.566 15.566 9.81465 22.6353 9.81465C29.7045 9.81465 35.4559 15.566 35.4559 22.6353C35.4559 29.7045 29.7045 35.4559 22.6353 35.4559Z" fill="#263959"/>
<path d="M27.043 20.7198L29.4409 23.1178L27.043 25.5158L28.9186 27.3913L33.1922 23.1178L28.9186 18.8442L27.043 20.7198Z" fill="#263959"/>
<path d="M16.3517 18.8442L12.0781 23.1178L16.3517 27.3913L18.2273 25.5158L15.8294 23.1178L18.2273 20.7198L16.3517 18.8442Z" fill="#263959"/>
<path d="M19.8301 31.1826L22.9305 13.6314L25.5432 14.0929L22.4428 31.6442L19.8301 31.1826Z" fill="#263959"/>
</svg>
