<svg width="46" height="46" viewBox="0 0 46 46" fill="none" xmlns="http://www.w3.org/2000/svg">
<path d="M43.9496 0.00123827C34.4549 0.00999459 25.1524 4.00633 18.4249 10.9669L16.0327 13.359L13.4895 10.8158L5.98216 12.9349L0 18.9169L5.23716 24.1543L5.23708 24.1544L5.5079 24.4251L3.04437 29.5073L4.66818 31.1311L0.696437 35.1029L2.57268 36.9792L6.54442 33.0074L8.46524 34.9284L0.0542184 43.3393L1.93046 45.2155L10.3415 36.8046L12.2623 38.7254L8.29038 42.6973L10.1666 44.5736L14.1385 40.6016L15.7624 42.2255L20.8447 39.762L26.3527 45.27L32.3344 39.2886L34.4607 31.7875L31.9107 29.2376L34.3028 26.8456C37.6203 23.6478 40.37 19.7048 42.2546 15.4422C45.8339 7.34735 45.1992 0.848302 45.2788 0L43.9496 0.00123827ZM7.36893 15.3005L12.7131 13.7921L14.1563 15.2352L7.11332 22.2781L3.75239 18.9169L7.36893 15.3005ZM16.3037 39.0145L6.25546 28.966L7.49391 26.4113L18.8587 37.776L16.3037 39.0145ZM31.483 32.5625L29.9699 37.9007L26.3527 41.5177L22.9917 38.1568L30.0344 31.1141L31.483 32.5625ZM32.453 24.9432L30.0345 27.3616L30.0343 27.3614L21.1156 36.2801L8.98973 24.1544C9.88376 23.2604 17.0463 16.098 17.909 15.2353C18.1881 14.9561 16.9605 16.1839 20.3255 12.8185C26.2352 6.70044 34.2859 3.05268 42.5935 2.68536C42.2265 10.9988 38.5761 19.0456 32.453 24.9432Z" fill="#263959"/>
</svg>
