<svg width="173" height="39" viewBox="0 0 173 39" fill="none" xmlns="http://www.w3.org/2000/svg">
<path d="M67.8488 20.8907C68.1229 20.8907 68.3559 21.1237 68.3559 21.3978V22.4941C68.3559 25.4679 67.4103 27.8797 65.5054 29.7297C63.6006 31.5799 61.1476 32.498 58.1327 32.498C54.926 32.498 52.2537 31.4565 50.1432 29.3597C48.0191 27.2631 46.9639 24.7141 46.9639 21.6993C46.9639 18.6707 48.0054 16.0944 50.1021 13.9977C52.1988 11.9009 54.7889 10.8457 57.886 10.8457C59.832 10.8457 61.5997 11.2842 63.2169 12.175C64.6557 12.9698 65.8069 13.9839 66.6703 15.2447C66.8347 15.4914 66.7525 15.8202 66.5058 15.971L63.8609 17.4647C63.6416 17.5881 63.3539 17.5332 63.2032 17.3277C62.7235 16.6425 62.052 16.0807 61.2023 15.6284C60.202 15.0939 59.092 14.8198 57.8586 14.8198C55.8715 14.8198 54.2407 15.464 52.9663 16.7658C51.6918 18.0677 51.0477 19.7121 51.0477 21.6855C51.0477 23.6453 51.6918 25.276 52.9937 26.5504C54.2956 27.825 56.0086 28.469 58.16 28.469C59.7497 28.469 61.0653 28.1127 62.1069 27.4138C62.929 26.852 63.5594 26.1257 63.9569 25.2349C64.1076 24.8923 63.8746 24.5086 63.5046 24.5086H58.4341C58.16 24.5086 57.9271 24.2756 57.9271 24.0016V21.3841C57.9271 21.11 58.16 20.877 58.4341 20.877H67.8488V20.8907Z" fill="#263959"/>
<path d="M74.9202 17.9851C74.9202 18.4373 75.482 18.6703 75.7835 18.3414C76.0439 18.0673 76.3454 17.8206 76.6879 17.6287C77.3595 17.245 78.0858 17.0121 78.8806 16.9436C79.1821 16.9161 79.4425 17.1491 79.4425 17.4506V20.6573C79.4425 20.9451 79.2095 21.1644 78.9218 21.1644C77.9625 21.137 77.0854 21.3974 76.3043 21.9181C75.3861 22.5347 74.9202 23.5489 74.9202 24.9877V31.5932C74.9202 31.8672 74.6872 32.1002 74.4132 32.1002H71.5901C71.316 32.1002 71.083 31.8672 71.083 31.5932V17.711C71.083 17.4369 71.316 17.204 71.5901 17.204H74.4132C74.6872 17.204 74.9202 17.4369 74.9202 17.711V17.9851Z" fill="#263959"/>
<path d="M92.9279 17.2041H95.751C96.0251 17.2041 96.258 17.437 96.258 17.7111V31.5796C96.258 31.8536 96.0251 32.0866 95.751 32.0866H92.9279C92.6539 32.0866 92.4209 31.8536 92.4209 31.5796V31.5659C92.4209 31.141 91.9275 30.908 91.5987 31.1685C90.5435 32.0455 89.2005 32.484 87.5696 32.484C85.5826 32.484 83.8833 31.7303 82.4718 30.2092C81.0603 28.688 80.3477 26.838 80.3477 24.6316C80.3477 22.4253 81.0603 20.5753 82.4718 19.0541C83.8833 17.533 85.5963 16.7793 87.5696 16.7793C89.2005 16.7793 90.5298 17.2178 91.5987 18.1086C91.9275 18.3826 92.4209 18.1497 92.4209 17.7111V17.6974C92.4209 17.4234 92.6402 17.2041 92.9279 17.2041ZM85.3359 27.6602C86.1033 28.4413 87.0901 28.8387 88.2823 28.8387C89.4745 28.8387 90.4612 28.4413 91.2424 27.6602C92.0235 26.879 92.4209 25.865 92.4209 24.6453C92.4209 23.412 92.0235 22.4116 91.2424 21.6304C90.4612 20.8493 89.4745 20.452 88.2823 20.452C87.0901 20.452 86.1171 20.8493 85.3359 21.6304C84.5685 22.4116 84.1711 23.4257 84.1711 24.6453C84.1848 25.865 84.5685 26.879 85.3359 27.6602Z" fill="#263959"/>
<path d="M108.399 16.7922C110.4 16.7922 112.113 17.5459 113.524 19.0671C114.936 20.5882 115.649 22.4384 115.649 24.6447C115.649 26.851 114.936 28.701 113.524 30.2221C112.113 31.7433 110.4 32.497 108.399 32.497C106.782 32.497 105.453 32.0585 104.411 31.1814C104.082 30.9074 103.589 31.1403 103.589 31.5651C103.589 31.8393 103.356 32.0723 103.082 32.0723H100.259C99.9848 32.0723 99.752 31.8393 99.752 31.5651V11.7629C99.752 11.4888 99.9848 11.2559 100.259 11.2559H103.082C103.356 11.2559 103.589 11.4888 103.589 11.7629V17.7104C103.589 18.1352 104.082 18.3682 104.411 18.0941C105.439 17.2171 106.768 16.7922 108.399 16.7922ZM104.74 27.6595C105.508 28.4407 106.494 28.8381 107.687 28.8381C108.879 28.8381 109.866 28.4407 110.647 27.6595C111.427 26.8784 111.825 25.8643 111.825 24.6447C111.825 23.4113 111.427 22.4109 110.647 21.6298C109.866 20.8487 108.879 20.4512 107.687 20.4512C106.494 20.4512 105.521 20.8487 104.74 21.6298C103.973 22.4109 103.575 23.425 103.575 24.6447C103.575 25.8643 103.959 26.8784 104.74 27.6595Z" fill="#263959"/>
<path d="M125.652 32.4971C123.583 32.4971 121.857 32.0311 120.445 31.1129C119.156 30.277 118.225 29.1532 117.635 27.7692C117.539 27.5362 117.622 27.2621 117.841 27.1388L120.486 25.5902C120.733 25.4395 121.061 25.5354 121.198 25.8095C122.062 27.5911 123.583 28.4955 125.776 28.4955C126.927 28.4955 127.763 28.2899 128.311 27.8651C128.859 27.4402 129.12 26.9195 129.12 26.2891C129.12 25.5491 128.791 24.9872 128.133 24.5761C127.475 24.165 126.31 23.7265 124.624 23.2469C123.693 22.9728 122.898 22.6986 122.253 22.4109C121.61 22.1368 120.966 21.7668 120.321 21.3009C119.678 20.8349 119.185 20.2456 118.855 19.533C118.513 18.8205 118.348 17.9845 118.348 17.0389C118.348 15.1615 119.019 13.654 120.363 12.5303C121.706 11.4066 123.31 10.8447 125.2 10.8447C126.886 10.8447 128.366 11.2559 129.654 12.0781C130.805 12.8181 131.723 13.8185 132.422 15.0793C132.559 15.3259 132.463 15.6274 132.23 15.7645L129.654 17.2445C129.408 17.3816 129.106 17.2993 128.969 17.0663C128.133 15.5863 126.872 14.8326 125.213 14.8326C124.365 14.8326 123.693 15.0244 123.2 15.4082C122.719 15.7919 122.473 16.2989 122.473 16.9156C122.473 17.5733 122.747 18.0942 123.295 18.5053C123.843 18.9163 124.885 19.3549 126.434 19.8346C127.064 20.0263 127.543 20.1909 127.872 20.3005C128.202 20.4102 128.64 20.5746 129.215 20.8075C129.777 21.0405 130.216 21.246 130.531 21.4516C130.832 21.6435 131.189 21.9176 131.587 22.2602C131.983 22.6028 132.285 22.9453 132.491 23.3016C132.696 23.6579 132.874 24.0965 133.025 24.5898C133.176 25.0969 133.245 25.6451 133.245 26.2343C133.245 28.1529 132.545 29.6877 131.148 30.8115C129.709 31.9215 127.886 32.4971 125.652 32.4971Z" fill="#263959"/>
<path d="M143.261 20.8894H140.918C140.645 20.8894 140.411 21.1223 140.411 21.3965V27.0836C140.411 27.6043 140.535 27.9744 140.795 28.2073C141.055 28.4403 141.425 28.5773 141.918 28.6048C142.289 28.6322 142.727 28.6322 143.248 28.6185C143.536 28.6048 143.769 28.8378 143.769 29.1255V31.6196C143.769 31.8801 143.563 32.0992 143.303 32.1267C140.904 32.3459 139.205 32.0855 138.191 31.3318C137.109 30.5371 136.574 29.1255 136.574 27.0836V21.3965C136.574 21.1223 136.341 20.8894 136.067 20.8894H134.491C134.217 20.8894 133.983 20.6564 133.983 20.3823V17.71C133.983 17.436 134.217 17.203 134.491 17.203H136.067C136.341 17.203 136.574 16.97 136.574 16.696V14.5719C136.574 14.3526 136.725 14.147 136.93 14.0923L139.754 13.2426C140.082 13.1467 140.411 13.3933 140.411 13.7223V16.696C140.411 16.97 140.645 17.203 140.918 17.203H143.261C143.536 17.203 143.769 17.436 143.769 17.71V20.3823C143.769 20.6702 143.536 20.8894 143.261 20.8894Z" fill="#263959"/>
<path d="M157.829 17.2041H160.652C160.926 17.2041 161.16 17.437 161.16 17.7111V31.5796C161.16 31.8536 160.926 32.0866 160.652 32.0866H157.829C157.555 32.0866 157.322 31.8536 157.322 31.5796V31.5659C157.322 31.141 156.828 30.908 156.5 31.1685C155.445 32.0455 154.102 32.484 152.471 32.484C150.483 32.484 148.785 31.7303 147.373 30.2092C145.962 28.688 145.249 26.838 145.249 24.6316C145.249 22.4253 145.962 20.5753 147.373 19.0541C148.785 17.533 150.498 16.7793 152.471 16.7793C154.102 16.7793 155.431 17.2178 156.5 18.1086C156.828 18.3826 157.322 18.1497 157.322 17.7111V17.6974C157.322 17.4234 157.555 17.2041 157.829 17.2041ZM150.251 27.6602C151.018 28.4413 152.005 28.8387 153.198 28.8387C154.39 28.8387 155.377 28.4413 156.158 27.6602C156.938 26.879 157.336 25.865 157.336 24.6453C157.336 23.412 156.938 22.4116 156.158 21.6304C155.377 20.8493 154.39 20.452 153.198 20.452C152.005 20.452 151.032 20.8493 150.251 21.6304C149.484 22.4116 149.086 23.4257 149.086 24.6453C149.086 25.865 149.47 26.879 150.251 27.6602Z" fill="#263959"/>
<path d="M168.478 17.9851C168.478 18.4373 169.039 18.6703 169.341 18.3414C169.601 18.0673 169.903 17.8206 170.246 17.6287C170.917 17.245 171.643 17.0121 172.438 16.9436C172.739 16.9161 173 17.1491 173 17.4506V20.6573C173 20.9451 172.767 21.1644 172.48 21.1644C171.52 21.137 170.643 21.3974 169.862 21.9181C168.944 22.5347 168.478 23.5489 168.478 24.9877V31.5932C168.478 31.8672 168.245 32.1002 167.97 32.1002H165.148C164.873 32.1002 164.641 31.8672 164.641 31.5932V17.711C164.641 17.4369 164.873 17.204 165.148 17.204H167.97C168.245 17.204 168.478 17.4369 168.478 17.711V17.9851Z" fill="#263959"/>
<path d="M23.9872 16.4036H18.6105C18.3971 16.4036 18.1838 16.5748 18.1838 16.8317V23.0378C18.1838 23.2518 18.3544 23.4659 18.6105 23.4659H22.0242C22.2376 23.4659 22.4509 23.2946 22.4509 23.0378V21.1117C22.4509 20.8978 22.6216 20.6837 22.8777 20.6837H27.6997C28.0838 20.6837 28.2545 21.1546 27.9984 21.4113L26.7182 22.6526C26.3769 22.995 26.2062 23.5087 26.2915 24.0222L27.3156 30.3997C27.3584 30.7421 27.0169 30.9988 26.7182 30.8277L21.0001 27.8316C20.5734 27.6175 20.0187 27.6175 19.592 27.8316L13.8738 30.8277C13.5751 30.9988 13.1911 30.7421 13.2764 30.3997L14.3858 24.0222C14.4712 23.5087 14.3005 22.995 13.9591 22.6526L9.30781 18.1585C9.05178 17.9017 9.1798 17.4736 9.52118 17.4308L15.8794 16.4893C16.3915 16.4036 16.8182 16.104 17.0316 15.6332L19.8907 9.85501C20.0613 9.5554 20.488 9.5554 20.6587 9.85501L22.5363 13.6643C22.7924 14.1779 23.3471 14.5204 23.9018 14.5204H37.1731C37.5144 14.5204 37.5571 14.0495 37.2157 14.0067L27.1449 12.5514C26.8462 12.5087 26.6329 12.3375 26.5049 12.0807L20.7014 0.224707C20.5307 -0.0749023 20.104 -0.0749023 19.9333 0.224707L14.0871 12.0807C13.9591 12.3375 13.7031 12.5087 13.4471 12.5514L0.389241 14.4347C0.00518699 14.5204 -0.122831 14.9484 0.133205 15.1623L9.60652 24.4074C9.81989 24.6215 9.90523 24.8783 9.86256 25.1779L7.64359 38.2323C7.60092 38.5747 7.9423 38.8315 8.24101 38.6603L19.9333 32.4969C20.1893 32.3686 20.488 32.3686 20.744 32.4969L32.4364 38.6603C32.7351 38.8315 33.1191 38.5747 33.0338 38.2323L30.8148 25.1779C30.7722 24.9211 30.8575 24.6215 31.0709 24.4074L38.5386 17.1312C38.7946 16.8745 38.6239 16.4036 38.2398 16.4036H23.9872Z" fill="#263959"/>
</svg>
