<svg width="46" height="46" viewBox="0 0 46 46" fill="none" xmlns="http://www.w3.org/2000/svg">
<path d="M33.3387 22.6213L44.8831 11.0635C45.132 10.8143 45.2716 10.4763 45.271 10.1241C45.2705 9.77197 45.1298 9.43448 44.8802 9.18612L36.0372 0.387338C35.5189 -0.128401 34.6811 -0.127429 34.1639 0.389637L22.6355 11.9181L12.9813 2.264C12.7885 2.07107 12.5408 1.94234 12.2722 1.89539L1.55486 0.0197864C1.12922 -0.0544843 0.693943 0.0829165 0.388373 0.388487C0.0828017 0.694058 -0.0546875 1.12934 0.0199369 1.55498L1.89677 12.2711C1.94381 12.54 2.07273 12.7878 2.26592 12.9806L11.9254 22.6283L0.388991 34.1646C0.140273 34.4133 0.000485016 34.7506 0.000485016 35.1023C0.000485016 35.4542 0.140273 35.7915 0.388991 36.0402L9.22959 44.8807C9.47831 45.1295 9.81562 45.2691 10.1673 45.2691H10.1677C10.5196 45.269 10.857 45.1291 11.1056 44.8802L22.6413 33.3313L34.2067 44.8824C34.4555 45.1308 34.7926 45.2703 35.1441 45.2703H35.1461C35.4983 45.2698 35.8357 45.1291 36.0841 44.8795L44.8829 36.0364C45.3986 35.5181 45.3976 34.6802 44.8806 34.1631L33.3387 22.6213ZM27.2307 11.0742L30.0441 13.8876C30.3031 14.1467 30.6425 14.2761 30.982 14.2761C31.3214 14.2761 31.6608 14.1467 31.9197 13.8876C32.4377 13.3698 32.4377 12.53 31.9197 12.012L29.1063 9.19858L31.6516 6.65331L34.465 9.46675C34.724 9.72582 35.0634 9.85526 35.4029 9.85526C35.7423 9.85526 36.0817 9.72582 36.3406 9.46675C36.8586 8.94889 36.8586 8.1091 36.3406 7.59115L33.5272 4.77771L35.1042 3.20069L42.0674 10.1291L31.4631 20.7457L24.5111 13.7937L27.2307 11.0742ZM9.30139 4.06834L4.06928 9.30053L2.95849 2.95834L9.30139 4.06834ZM10.1668 42.0667L3.20244 35.1023L4.77742 33.5274L7.59086 36.3408C7.84975 36.5998 8.18927 36.7293 8.52862 36.7293C8.86805 36.7293 9.20749 36.5998 9.46637 36.3408C9.98432 35.823 9.98432 34.9832 9.46637 34.4652L6.65293 31.6518L9.1982 29.1065L12.0116 31.9199C12.2705 32.1789 12.6101 32.3084 12.9495 32.3084C13.2889 32.3084 13.6284 32.1789 13.8872 31.9199C14.4052 31.4021 14.4052 30.5623 13.8872 30.0443L11.0738 27.2309L13.802 24.5028L20.7644 31.4566L10.1668 42.0667ZM35.141 42.0666L5.07919 12.0417L7.62269 9.49823L37.6598 39.5353L35.141 42.0666ZM39.5306 37.655L9.49829 7.62263L12.0436 5.07736L42.0695 35.1033L39.5306 37.655Z" fill="#263959"/>
</svg>
