<svg width="18" height="18" viewBox="0 0 18 18" fill="none" xmlns="http://www.w3.org/2000/svg">
<g clip-path="url(#clip0_13_7850)">
<path d="M12.75 1.5H5.25C3.17893 1.5 1.5 3.17893 1.5 5.25V12.75C1.5 14.8211 3.17893 16.5 5.25 16.5H12.75C14.8211 16.5 16.5 14.8211 16.5 12.75V5.25C16.5 3.17893 14.8211 1.5 12.75 1.5Z" stroke="white" stroke-width="2" stroke-linecap="round" stroke-linejoin="round"/>
<path d="M11.9988 8.5287C12.0914 9.15289 11.9847 9.79037 11.6941 10.3505C11.4035 10.9106 10.9437 11.3648 10.38 11.6485C9.81638 11.9322 9.17764 12.0309 8.55464 11.9307C7.93165 11.8304 7.35612 11.5363 6.90993 11.0901C6.46374 10.6439 6.1696 10.0684 6.06935 9.44536C5.96911 8.82237 6.06785 8.18362 6.35155 7.61998C6.63524 7.05634 7.08944 6.59651 7.64954 6.30588C8.20964 6.01526 8.84712 5.90864 9.4713 6.0012C10.108 6.09562 10.6974 6.3923 11.1526 6.84743C11.6077 7.30257 11.9044 7.89201 11.9988 8.5287Z" stroke="white" stroke-width="2" stroke-linecap="round" stroke-linejoin="round"/>
<ellipse cx="13.125" cy="4.875" rx="1.125" ry="1.125" fill="white"/>
</g>
<defs>
<clipPath id="clip0_13_7850">
<rect width="18" height="18" fill="white"/>
</clipPath>
</defs>
</svg>
