<svg width="179" height="40" viewBox="0 0 179 40" fill="none" xmlns="http://www.w3.org/2000/svg">
<path d="M70.1017 21.584C70.3849 21.584 70.6256 21.8248 70.6256 22.1079V23.2406C70.6256 26.3132 69.6486 28.8051 67.6805 30.7165C65.7124 32.628 63.178 33.5766 60.063 33.5766C56.7499 33.5766 53.9889 32.5006 51.8083 30.3342C49.6137 28.1679 48.5234 25.5343 48.5234 22.4195C48.5234 19.2903 49.5996 16.6285 51.7659 14.4622C53.9322 12.2958 56.6083 11.2056 59.8081 11.2056C61.8187 11.2056 63.6452 11.6586 65.316 12.579C66.8026 13.4002 67.992 14.4479 68.884 15.7506C69.0539 16.0055 68.969 16.3452 68.7141 16.501L65.9814 18.0443C65.7549 18.1718 65.4576 18.1151 65.3019 17.9028C64.8063 17.1948 64.1124 16.6143 63.2346 16.147C62.201 15.5948 61.0541 15.3116 59.7799 15.3116C57.7267 15.3116 56.0419 15.9772 54.7251 17.3222C53.4083 18.6673 52.7429 20.3663 52.7429 22.4052C52.7429 24.43 53.4083 26.1149 54.7534 27.4316C56.0986 28.7485 57.8684 29.4139 60.0913 29.4139C61.7337 29.4139 63.093 29.0458 64.1691 28.3236C65.0186 27.7432 65.6699 26.9928 66.0806 26.0725C66.2363 25.7185 65.9956 25.322 65.6133 25.322H60.3744C60.0913 25.322 59.8506 25.0813 59.8506 24.7982V22.0938C59.8506 21.8106 60.0913 21.5699 60.3744 21.5699H70.1017V21.584Z" fill="#3EE8B5"/>
<path d="M77.4069 18.5817C77.4069 19.049 77.9874 19.2897 78.2989 18.9499C78.568 18.6667 78.8795 18.4118 79.2334 18.2136C79.9272 17.8171 80.6777 17.5764 81.4988 17.5057C81.8104 17.4773 82.0794 17.718 82.0794 18.0296V21.3427C82.0794 21.64 81.8387 21.8666 81.5414 21.8666C80.5502 21.8383 79.6441 22.1073 78.837 22.6453C77.8884 23.2824 77.4069 24.3303 77.4069 25.8169V32.6416C77.4069 32.9247 77.1662 33.1654 76.8831 33.1654H73.9664C73.6831 33.1654 73.4424 32.9247 73.4424 32.6416V18.2986C73.4424 18.0154 73.6831 17.7747 73.9664 17.7747H76.8831C77.1662 17.7747 77.4069 18.0154 77.4069 18.2986V18.5817Z" fill="#3EE8B5"/>
<path d="M96.0125 17.7748H98.9294C99.2125 17.7748 99.4532 18.0155 99.4532 18.2987V32.6275C99.4532 32.9107 99.2125 33.1514 98.9294 33.1514H96.0125C95.7294 33.1514 95.4887 32.9107 95.4887 32.6275V32.6134C95.4887 32.1744 94.9789 31.9337 94.6392 32.2028C93.5489 33.109 92.1614 33.562 90.4764 33.562C88.4234 33.562 86.6677 32.7833 85.2094 31.2117C83.7509 29.64 83.0146 27.7285 83.0146 25.449C83.0146 23.1694 83.7509 21.2579 85.2094 19.6862C86.6677 18.1147 88.4375 17.3359 90.4764 17.3359C92.1614 17.3359 93.5348 17.789 94.6392 18.7094C94.9789 18.9925 95.4887 18.7518 95.4887 18.2987V18.2845C95.4887 18.0014 95.7152 17.7748 96.0125 17.7748ZM88.1685 28.5781C88.9614 29.3851 89.9809 29.7957 91.2127 29.7957C92.4445 29.7957 93.4639 29.3851 94.2711 28.5781C95.0781 27.771 95.4887 26.7232 95.4887 25.4631C95.4887 24.1888 95.0781 23.1552 94.2711 22.3481C93.4639 21.5411 92.4445 21.1305 91.2127 21.1305C89.9809 21.1305 88.9756 21.5411 88.1685 22.3481C87.3756 23.1552 86.9651 24.203 86.9651 25.4631C86.9792 26.7232 87.3756 27.771 88.1685 28.5781Z" fill="#3EE8B5"/>
<path d="M111.998 17.35C114.065 17.35 115.835 18.1288 117.293 19.7005C118.752 21.2721 119.488 23.1836 119.488 25.4632C119.488 27.7428 118.752 29.6542 117.293 31.2258C115.835 32.7975 114.065 33.5762 111.998 33.5762C110.327 33.5762 108.954 33.1231 107.877 32.2169C107.538 31.9338 107.028 32.1745 107.028 32.6133C107.028 32.8966 106.787 33.1373 106.504 33.1373H103.587C103.304 33.1373 103.063 32.8966 103.063 32.6133V12.1537C103.063 11.8706 103.304 11.6299 103.587 11.6299H106.504C106.787 11.6299 107.028 11.8706 107.028 12.1537V18.2987C107.028 18.7376 107.538 18.9783 107.877 18.6952C108.939 17.789 110.313 17.35 111.998 17.35ZM108.217 28.5781C109.01 29.3852 110.03 29.7958 111.261 29.7958C112.494 29.7958 113.513 29.3852 114.32 28.5781C115.126 27.771 115.537 26.7233 115.537 25.4632C115.537 24.1889 115.126 23.1552 114.32 22.3482C113.513 21.5412 112.494 21.1305 111.261 21.1305C110.03 21.1305 109.024 21.5412 108.217 22.3482C107.424 23.1552 107.014 24.203 107.014 25.4632C107.014 26.7233 107.41 27.771 108.217 28.5781Z" fill="#3EE8B5"/>
<path d="M129.824 33.5762C127.686 33.5762 125.902 33.0948 124.444 32.1461C123.112 31.2825 122.15 30.1214 121.541 28.6914C121.442 28.4506 121.527 28.1675 121.754 28.0401L124.487 26.4401C124.742 26.2843 125.081 26.3835 125.222 26.6666C126.115 28.5073 127.686 29.4418 129.952 29.4418C131.141 29.4418 132.004 29.2294 132.571 28.7905C133.137 28.3515 133.407 27.8135 133.407 27.1622C133.407 26.3976 133.066 25.8171 132.387 25.3923C131.707 24.9675 130.503 24.5145 128.762 24.0189C127.8 23.7358 126.978 23.4525 126.312 23.1552C125.648 22.8721 124.982 22.4898 124.316 22.0083C123.651 21.5269 123.142 20.9181 122.801 20.1818C122.448 19.4456 122.277 18.5819 122.277 17.6049C122.277 15.6652 122.971 14.1076 124.359 12.9466C125.746 11.7856 127.403 11.2051 129.357 11.2051C131.098 11.2051 132.628 11.6299 133.959 12.4793C135.148 13.2439 136.097 14.2776 136.819 15.5802C136.96 15.8351 136.861 16.1465 136.62 16.2882L133.959 17.8173C133.704 17.9589 133.392 17.8739 133.251 17.6332C132.387 16.1041 131.084 15.3253 129.37 15.3253C128.494 15.3253 127.8 15.5235 127.29 15.92C126.794 16.3165 126.539 16.8403 126.539 17.4775C126.539 18.1571 126.822 18.6952 127.389 19.1199C127.955 19.5446 129.031 19.9978 130.631 20.4933C131.282 20.6915 131.778 20.8615 132.118 20.9748C132.458 21.088 132.91 21.2579 133.505 21.4986C134.086 21.7393 134.54 21.9516 134.865 22.1641C135.176 22.3623 135.544 22.6455 135.955 22.9995C136.365 23.3535 136.677 23.7074 136.889 24.0755C137.102 24.4436 137.286 24.8968 137.442 25.4065C137.598 25.9304 137.669 26.4968 137.669 27.1055C137.669 29.0878 136.946 30.6736 135.502 31.8346C134.015 32.9815 132.132 33.5762 129.824 33.5762Z" fill="#3EE8B5"/>
<path d="M148.017 21.5834H145.597C145.314 21.5834 145.073 21.8241 145.073 22.1073V27.9832C145.073 28.5212 145.201 28.9036 145.469 29.1442C145.738 29.3849 146.12 29.5265 146.63 29.5549C147.013 29.5832 147.465 29.5832 148.004 29.5691C148.301 29.5549 148.542 29.7956 148.542 30.0929V32.6698C148.542 32.9389 148.33 33.1654 148.06 33.1938C145.582 33.4202 143.826 33.1512 142.779 32.3725C141.661 31.5513 141.108 30.0929 141.108 27.9832V22.1073C141.108 21.8241 140.868 21.5834 140.584 21.5834H138.956C138.673 21.5834 138.432 21.3426 138.432 21.0595V18.2985C138.432 18.0153 138.673 17.7746 138.956 17.7746H140.584C140.868 17.7746 141.108 17.5339 141.108 17.2508V15.0562C141.108 14.8296 141.264 14.6172 141.476 14.5606L144.393 13.6828C144.732 13.5836 145.073 13.8385 145.073 14.1783V17.2508C145.073 17.5339 145.314 17.7746 145.597 17.7746H148.017C148.301 17.7746 148.542 18.0153 148.542 18.2985V21.0595C148.542 21.3569 148.301 21.5834 148.017 21.5834Z" fill="#3EE8B5"/>
<path d="M163.069 17.7748H165.986C166.269 17.7748 166.51 18.0155 166.51 18.2987V32.6275C166.51 32.9107 166.269 33.1514 165.986 33.1514H163.069C162.786 33.1514 162.545 32.9107 162.545 32.6275V32.6134C162.545 32.1744 162.035 31.9337 161.696 32.2028C160.606 33.109 159.218 33.562 157.533 33.562C155.479 33.562 153.725 32.7833 152.266 31.2117C150.808 29.64 150.071 27.7285 150.071 25.449C150.071 23.1694 150.808 21.2579 152.266 19.6862C153.725 18.1147 155.494 17.3359 157.533 17.3359C159.218 17.3359 160.591 17.789 161.696 18.7094C162.035 18.9925 162.545 18.7518 162.545 18.2987V18.2845C162.545 18.0014 162.786 17.7748 163.069 17.7748ZM155.239 28.5781C156.032 29.3851 157.051 29.7957 158.284 29.7957C159.516 29.7957 160.535 29.3851 161.342 28.5781C162.148 27.771 162.559 26.7232 162.559 25.4631C162.559 24.1888 162.148 23.1552 161.342 22.3481C160.535 21.5411 159.516 21.1305 158.284 21.1305C157.051 21.1305 156.046 21.5411 155.239 22.3481C154.447 23.1552 154.036 24.203 154.036 25.4631C154.036 26.7232 154.432 27.771 155.239 28.5781Z" fill="#3EE8B5"/>
<path d="M174.07 18.5817C174.07 19.049 174.65 19.2897 174.962 18.9499C175.231 18.6667 175.543 18.4118 175.896 18.2136C176.59 17.8171 177.34 17.5764 178.162 17.5057C178.473 17.4773 178.743 17.718 178.743 18.0296V21.3427C178.743 21.64 178.501 21.8666 178.205 21.8666C177.213 21.8383 176.307 22.1073 175.5 22.6453C174.551 23.2824 174.07 24.3303 174.07 25.8169V32.6416C174.07 32.9247 173.83 33.1654 173.545 33.1654H170.63C170.346 33.1654 170.105 32.9247 170.105 32.6416V18.2986C170.105 18.0154 170.346 17.7747 170.63 17.7747H173.545C173.83 17.7747 174.07 18.0154 174.07 18.2986V18.5817Z" fill="#3EE8B5"/>
<path d="M24.7835 16.9482H19.2283C19.0078 16.9482 18.7874 17.125 18.7874 17.3904V23.8026C18.7874 24.0237 18.9637 24.2449 19.2283 24.2449H22.7553C22.9758 24.2449 23.1962 24.0679 23.1962 23.8026V21.8126C23.1962 21.5915 23.3726 21.3704 23.6371 21.3704H28.6192C29.0161 21.3704 29.1925 21.8568 28.9278 22.1221L27.6052 23.4046C27.2525 23.7584 27.0761 24.2891 27.1643 24.8197L28.2224 31.4088C28.2666 31.7626 27.9138 32.0279 27.6052 31.8511L21.6973 28.7555C21.2564 28.5343 20.6832 28.5343 20.2424 28.7555L14.3344 31.8511C14.0257 32.0279 13.629 31.7626 13.7171 31.4088L14.8634 24.8197C14.9516 24.2891 14.7753 23.7584 14.4225 23.4046L9.6168 18.7613C9.35227 18.496 9.48454 18.0537 9.83725 18.0095L16.4066 17.0366C16.9356 16.9482 17.3765 16.6386 17.597 16.1522L20.551 10.1822C20.7273 9.87261 21.1681 9.87261 21.3445 10.1822L23.2845 14.1179C23.549 14.6486 24.1221 15.0024 24.6953 15.0024H38.4071C38.7598 15.0024 38.8039 14.5159 38.4511 14.4717L28.0461 12.9681C27.7374 12.924 27.517 12.7471 27.3848 12.4818L21.3887 0.232167C21.2123 -0.0773889 20.7714 -0.0773889 20.595 0.232167L14.5548 12.4818C14.4225 12.7471 14.158 12.924 13.8935 12.9681L0.402163 14.9139C0.00535918 15.0024 -0.126908 15.4446 0.137627 15.6657L9.92543 25.2177C10.1459 25.4389 10.2341 25.7042 10.19 26.0137L7.89733 39.5015C7.85324 39.8553 8.20596 40.1206 8.51458 39.9437L20.595 33.5757C20.8595 33.4431 21.1681 33.4431 21.4327 33.5757L33.5132 39.9437C33.8218 40.1206 34.2186 39.8553 34.1304 39.5015L31.8377 26.0137C31.7937 25.7484 31.8818 25.4389 32.1023 25.2177L39.8179 17.6999C40.0824 17.4346 39.9061 16.9482 39.5093 16.9482H24.7835Z" fill="#3EE8B5"/>
</svg>
