<svg width="28" height="28" viewBox="0 0 28 28" fill="none" xmlns="http://www.w3.org/2000/svg">
<path d="M17.7166 11.4804H13.9536C13.8043 11.4804 13.655 11.6002 13.655 11.78V16.1235C13.655 16.2732 13.7744 16.423 13.9536 16.423H16.3428C16.4921 16.423 16.6414 16.3032 16.6414 16.1235V14.7755C16.6414 14.6257 16.7609 14.4759 16.9401 14.4759H20.3149C20.5837 14.4759 20.7032 14.8054 20.5239 14.9851L19.628 15.8539C19.3891 16.0935 19.2696 16.453 19.3293 16.8124L20.0461 21.2758C20.076 21.5154 19.837 21.6951 19.628 21.5754L15.6261 19.4785C15.3274 19.3286 14.9392 19.3286 14.6405 19.4785L10.6386 21.5754C10.4295 21.6951 10.1607 21.5154 10.2204 21.2758L10.9969 16.8124C11.0567 16.453 10.9372 16.0935 10.6983 15.8539L7.44296 12.7085C7.26377 12.5288 7.35337 12.2293 7.59229 12.1993L12.0422 11.5403C12.4006 11.4804 12.6992 11.2707 12.8486 10.9412L14.8496 6.89722C14.969 6.68753 15.2676 6.68753 15.3871 6.89722L16.7012 9.56321C16.8804 9.92271 17.2686 10.1623 17.6569 10.1623H26.945C27.1839 10.1623 27.2138 9.83282 26.9748 9.80285L19.9266 8.78437C19.7175 8.75449 19.5683 8.63463 19.4787 8.45492L15.417 0.157266C15.2975 -0.0524218 14.9989 -0.0524218 14.8794 0.157266L10.7878 8.45492C10.6983 8.63463 10.5191 8.75449 10.3399 8.78437L1.20113 10.1024C0.932341 10.1623 0.842746 10.4619 1.02194 10.6117L7.65202 17.082C7.80135 17.2318 7.86108 17.4115 7.83121 17.6212L6.27822 26.7576C6.24836 26.9973 6.48728 27.177 6.69634 27.0571L14.8794 22.7436C15.0586 22.6538 15.2676 22.6538 15.4468 22.7436L23.6299 27.0571C23.839 27.177 24.1078 26.9973 24.0481 26.7576L22.495 17.6212C22.4652 17.4415 22.5249 17.2318 22.6743 17.082L27.9007 11.9896C28.0798 11.8099 27.9604 11.4804 27.6916 11.4804H17.7166Z" fill="#3EE8B5"/>
</svg>
